<svg xmlns="http://www.w3.org/2000/svg" width="300" height="52" viewBox="0 0 300 52">
  <defs>
    <style>
      .cls-1 {
        fill: #fff;
        fill-rule: evenodd;
      }
    </style>
  </defs>
  <path id="VLR_PRO_TRACKER" data-name="VLR PRO TRACKER" class="cls-1" d="M5.762,37.574H12.4L24.31,14.47H17.973l-7.987,16.5L6.95,14.47H1.141Zm16.8,0h16.6l0.792-5.116H28.894L31.733,14.47H26.188Zm39.6-15.413c0.792-5.017-2.838-7.69-6.9-7.69H45.1l-3.631,23.1h5.545l1.221-7.69h3.433l2.64,7.69h5.974l-3.3-8.449A8.7,8.7,0,0,0,62.16,22.161ZM49.882,19.355h4.291a2.314,2.314,0,0,1,2.409,2.9,3.319,3.319,0,0,1-3.334,2.871H48.958ZM71.561,37.574h5.545l1.188-7.657h4.39a8.9,8.9,0,0,0,9.241-7.723c0.759-4.951-2.706-7.723-6.8-7.723H75.192Zm7.492-12.41,0.924-5.974H84a2.4,2.4,0,0,1,2.541,3,3.386,3.386,0,0,1-3.465,2.97H79.053Zm33.4-3c0.792-5.017-2.839-7.69-6.9-7.69H95.387l-3.631,23.1H97.3l1.221-7.69h3.432l2.641,7.69h5.973l-3.3-8.449A8.7,8.7,0,0,0,112.451,22.161Zm-12.278-2.805h4.291a2.314,2.314,0,0,1,2.409,2.9,3.319,3.319,0,0,1-3.334,2.871h-4.29ZM123.965,37.9A13.739,13.739,0,0,0,137.7,26.022a9.962,9.962,0,0,0-9.967-11.882A13.993,13.993,0,0,0,114,26.022,9.963,9.963,0,0,0,123.965,37.9Zm0.859-5.479c-3.565,0-5.809-2.805-5.215-6.4a7.573,7.573,0,0,1,7.261-6.4c3.531,0,5.776,2.805,5.215,6.4A7.6,7.6,0,0,1,124.824,32.425Zm28.543,5.149h5.578l2.871-18.219h7.327L169.9,14.47H149.671l-0.76,4.885h7.361Zm35.411-15.413c0.792-5.017-2.839-7.69-6.9-7.69H171.714l-3.63,23.1h5.545l1.221-7.69h3.432l2.641,7.69H186.9l-3.3-8.449A8.7,8.7,0,0,0,188.778,22.161ZM176.5,19.355h4.291a2.314,2.314,0,0,1,2.409,2.9,3.319,3.319,0,0,1-3.333,2.871h-4.291Zm11.185,18.219h6.3l1.848-3.465h9.6l0.76,3.465h5.874l-5.709-23.1h-5.809Zm10.726-8.515,4.159-8.152h0.1l1.749,8.152h-6.007ZM223.293,37.9c5.38,0,8.846-2.541,11.387-6.271l-4.621-2.541a7.1,7.1,0,0,1-5.907,3.333c-3.466,0-5.71-2.805-5.149-6.4a7.465,7.465,0,0,1,7.129-6.37,5.019,5.019,0,0,1,4.885,3.2l5.412-2.541a9.866,9.866,0,0,0-9.373-6.172,13.985,13.985,0,0,0-13.73,11.882A10.011,10.011,0,0,0,223.293,37.9Zm13.066-.33h5.611l1.386-8.911h2.872l5.115,8.911h6.4l-6.6-11.618,10.2-11.486h-7.228l-7.525,8.911h-2.41l1.42-8.911H239.99Zm23.166,0h16.7l0.792-4.918H265.9l0.693-4.291h10.858l0.726-4.786H267.314l0.66-4.192h11.09l0.792-4.918h-16.7ZM299.59,22.161c0.792-5.017-2.839-7.69-6.9-7.69H282.526l-3.63,23.1h5.544l1.222-7.69h3.432l2.64,7.69h5.974l-3.3-8.449A8.7,8.7,0,0,0,299.59,22.161Zm-12.278-2.805h4.29a2.314,2.314,0,0,1,2.41,2.9,3.319,3.319,0,0,1-3.334,2.871h-4.29Z"/>
</svg>
