<svg xmlns="http://www.w3.org/2000/svg" width="300" height="52" viewBox="0 0 300 52">
  <defs>
    <style>
      .cls-1 {
        fill: #fff;
        fill-rule: evenodd;
      }
    </style>
  </defs>
  <path id="POSTPLANT" class="cls-1" d="M2.123,43.183h8.4l1.8-11.6h6.65c7,0,12.8-4.2,14-11.7,1.15-7.5-4.1-11.7-10.3-11.7H7.623Zm11.351-18.8,1.4-9.051h6.1c2.8,0,4.25,1.9,3.85,4.55a5.129,5.129,0,0,1-5.25,4.5h-6.1Zm35.4,19.3c11.251,0,19.2-8.05,20.8-18s-5.5-18-15.1-18a21.2,21.2,0,0,0-20.8,18C32.172,35.633,39.273,43.683,48.873,43.683Zm1.3-8.3c-5.4,0-8.8-4.25-7.9-9.7a11.474,11.474,0,0,1,11-9.7c5.35,0,8.751,4.25,7.9,9.7A11.515,11.515,0,0,1,50.173,35.383Zm32.2,8.3c7.951,0,13.9-4.15,14.9-10.751,1.2-7.251-5.15-9.251-9.551-10.5-3.35-1-6.45-1.75-6.05-4.1,0.25-1.7,2.05-3.3,4.85-3.3a3.982,3.982,0,0,1,4.3,3.5l8-2.2c-0.75-5.35-4.75-8.751-11.2-8.751-7.65,0-13.651,4.55-14.551,10.5-1.15,7,4.5,9.5,8.951,10.8,3.55,1,7,1.55,6.55,4.05-0.25,1.85-2.2,3.15-4.95,3.15-2.7,0-4.65-1.4-5-3.7l-8.5,2.3C70.972,40.183,75.822,43.683,82.372,43.683Zm24.751-.5h8.45l4.351-27.6h11.1l1.15-7.4H101.522l-1.15,7.4h11.151Zm22.3,0h8.4l1.8-11.6h6.651c7,0,12.8-4.2,14-11.7,1.151-7.5-4.1-11.7-10.3-11.7H134.922Zm11.35-18.8,1.4-9.051h6.1c2.8,0,4.25,1.9,3.85,4.55a5.129,5.129,0,0,1-5.25,4.5h-6.1Zm19.249,18.8h25.152l1.2-7.751H169.622l4.3-27.252h-8.4Zm26.4,0h9.551l2.8-5.25h14.551l1.15,5.25h8.9l-8.65-35h-8.8Zm16.251-12.9,6.3-12.351h0.15l2.65,12.351h-9.1Zm23.9,12.9h8.5l3.4-22.151,11.051,22.151h8.851l5.5-35h-8.5l-3.4,22.151L240.92,8.181h-8.85Zm45.649,0h8.451l4.35-27.6h11.1l1.15-7.4H266.619l-1.15,7.4H276.62Z"/>
</svg>
